<svg id="Capa_1" data-name="Capa 1" xmlns="http://www.w3.org/2000/svg" viewBox="0 0 420.11 420.11"><defs><style>.cls-1{fill:#62b33d;}</style></defs><title>camion_verde</title><path class="cls-1" d="M413.06,269.28a12.83,12.83,0,0,1-13.48,12.83h-.15c-2.42-.12-4.86.15-7.26-.06-3.24-.28-5.07.86-6.42,4-5.13,11.89-14.68,18.12-27.32,18-12.82-.17-22.17-6.83-27.07-19-1.38-3.43-6.67-3.06-10.06-3.06-.55,0-84.47.18-85.37,0-.43-.09-9.4-.44-10.85,3.25a29.15,29.15,0,0,1-54.51.33c-1.8-4.35-2.9-3.15-19.11-3.47-3.82-.08-7.65.07-11.47,0-5.91-.07-8.65-2.74-8.74-8.67-.11-7.12,1-6.7-6.88-6.7-12.11,0-24.23,0-36.34,0-3,0-6-.41-7.92-3a7.44,7.44,0,0,1-1-8.11,7.84,7.84,0,0,1,7.13-4.25c13.19,0,26.39,0,39.58,0,5.38,0,5.38,0,5.39-5.52q0-45.51,0-91c0-5.11,0-5.13-5-5.13q-34.62,0-69.24,0c-3.69,0-6.56-1.25-7.92-4.77a7.19,7.19,0,0,1,1.61-8.14c2.24-2.21,5.19-2.48,8.19-2.47h67c5.41,0,5.41,0,5.42-5.46,0-1.53-.07-3.06,0-4.59.33-4.84,3.12-7.74,7.92-8.24a32.91,32.91,0,0,1,3.44-.07h167.8A11.57,11.57,0,0,1,322,127.55c0,8.16.09,16.32,0,24.48,0,2.81.94,3.82,3.76,3.78,10.08-.11,20.15.1,30.22-.1,5.29-.1,9.07,1.86,12.49,5.93,9.35,11.11,19.07,21.9,28.65,32.81,4.45,5.07,8.93,10.12,13.38,15.19h0a11,11,0,0,1,2.61,7.12ZM233.66,131.55c-22.95,0-59.9.07-82.86-.09-3.44,0-4.19,1-4.18,4.28.12,42.33.06,80.69.13,123-.13,7.59-.34,8,4.4,8.07,2.72,0,17.37,2.05,19.14-2.58a29.29,29.29,0,0,1,54.82-.17c.86,2.23,2,2.75,4.18,2.74,24.48-.06,49-.1,73.45,0,3.15,0,3.72-1,3.72-3.89q-.12-63.69,0-127.37c0-3.57-1.17-4.14-4.36-4.12C279.31,131.61,256.48,131.55,233.66,131.55Zm163.83,110.7c0-6.88-.05-13.77,0-20.65a7.08,7.08,0,0,0-1.82-5.19q-19-21.53-37.81-43.15c-1.26-1.44-2.46-1.61-5.08-1.64-1.13,0-19.4.41-22.66.39-1.73,0-8.21-1-8.2,2.1q.07,44.94,0,89.89c0,.86-.29,1.85.52,2.51,1.87,1.56,7.87-.29,8.9-2.64,4.84-11.13,13.24-17.73,25.41-18.51,12.83-.82,22.69,4.82,28.19,16.36,2.14,4.49,4.52,5.3,8.82,5.19,3.18-.08,3.79-1.16,3.72-4C397.38,256,397.49,249.14,397.49,242.25ZM372.6,274.56a13.89,13.89,0,0,0-13.87-13.86,13.89,13.89,0,0,0-.71,27.76A13.77,13.77,0,0,0,372.6,274.56ZM194.79,288.18a14,14,0,0,0,16.87-13.65,14.27,14.27,0,0,0-14-13.84c-8.84.07-16,8.95-13.14,18.08A14,14,0,0,0,194.79,288.18Z"/><rect class="cls-1" x="7.05" y="192.65" width="99.02" height="14.16" rx="5.86"/><rect class="cls-1" x="48.57" y="251.94" width="19.2" height="14.16" rx="5.86"/></svg>