<svg width="39" height="27" viewBox="0 0 39 27" fill="none" xmlns="http://www.w3.org/2000/svg">
<path d="M34.7223 4.08008H0V26.6497H34.7223V4.08008Z" fill="#FFC970"/>
<path d="M32.7021 26.65L17.3613 9.21045L2.02051 26.65H32.7021Z" fill="#FFB233"/>
<path d="M17.3611 11.5044L31.2654 26.6498H3.45679L17.3611 11.5044Z" fill="#FFC970"/>
<path d="M17.3611 21.1558L0 6.01038V4.08008H34.7223V6.01038L17.3611 21.1558Z" fill="#FFB233"/>
<path d="M17.3611 19.2255L0 4.08008H34.7223L17.3611 19.2255Z" fill="#FFDCA3"/>
<path d="M26.2722 5.71341C26.2722 9.40325 29.368 12.3952 33.186 12.3952C33.716 12.3952 34.2307 12.3358 34.7224 12.2319V4.08008H26.4796C26.3414 4.59977 26.2722 5.14917 26.2722 5.71341Z" fill="#FFB233"/>
<path d="M26.4796 4.08008C26.3414 4.59978 26.2722 5.14917 26.2722 5.71341C26.2722 7.35417 26.8868 8.86129 27.9085 10.0269L34.7224 4.08008H26.4796Z" fill="#FFC970"/>
<path d="M33.1859 10.9106C36.1558 10.9106 38.5633 8.58379 38.5633 5.71358C38.5633 2.84337 36.1558 0.516602 33.1859 0.516602C30.2161 0.516602 27.8086 2.84337 27.8086 5.71358C27.8086 8.58379 30.2161 10.9106 33.1859 10.9106Z" fill="#D84861"/>
<path d="M35.9052 1.229C36.3738 2.00112 36.6426 2.89945 36.6426 3.85718C36.6426 6.73035 34.2382 9.05413 31.2653 9.05413C30.2743 9.05413 29.3448 8.79428 28.5459 8.34141C29.4831 9.87822 31.2038 10.9102 33.1858 10.9102C36.1587 10.9102 38.5631 8.58641 38.5631 5.71323C38.5631 3.80521 37.4953 2.13476 35.9052 1.229Z" fill="#C12944"/>
<path d="M31.2653 6.45624C32.7502 6.45624 33.954 5.29286 33.954 3.85776C33.954 2.42266 32.7502 1.25928 31.2653 1.25928C29.7804 1.25928 28.5767 2.42266 28.5767 3.85776C28.5767 5.29286 29.7804 6.45624 31.2653 6.45624Z" fill="#E17084"/>
<path d="M33.186 9.79694C30.8584 9.79694 28.9609 7.96315 28.9609 5.7136C28.9609 4.60739 29.4065 3.57542 30.2285 2.8033C31.0427 2.03118 32.1182 1.61542 33.2628 1.63027C34.3921 1.65254 35.4522 2.09799 36.2357 2.89981C37.027 3.70163 37.4418 4.74845 37.4034 5.84724C37.3726 6.80497 36.9962 7.72557 36.3433 8.43088C36.0206 8.77982 35.529 8.8986 35.0758 8.72785C34.6225 8.56451 34.3306 8.15618 34.3306 7.68845V7.56966H33.1783C32.1182 7.56966 31.2578 6.73815 31.2578 5.7136C31.2578 4.68906 32.1182 3.85754 33.1783 3.85754C34.2384 3.85754 35.0988 4.68906 35.0988 5.7136V7.68845C35.0988 7.92603 35.2908 8.01512 35.3446 8.03739C35.4061 8.05966 35.6058 8.11163 35.7671 7.94088C36.2972 7.36178 36.6045 6.61194 36.6352 5.82497C36.6659 4.92663 36.3202 4.07284 35.6749 3.41209C35.0297 2.75875 34.1616 2.38754 33.2398 2.37269C32.3026 2.35784 31.4192 2.69936 30.7585 3.33042C30.0902 3.96148 29.7214 4.80784 29.7214 5.7136C29.7214 7.55481 31.2732 9.05451 33.1783 9.05451V9.79694H33.186ZM33.186 4.59996C32.5484 4.59996 32.0337 5.09739 32.0337 5.7136C32.0337 6.32981 32.5484 6.82724 33.186 6.82724H34.3383V5.7136C34.3383 5.09739 33.8236 4.59996 33.186 4.59996Z" fill="#FFC970"/>
</svg>
