<svg width="48" height="48" viewBox="0 0 48 48" fill="none" xmlns="http://www.w3.org/2000/svg">
<path fill-rule="evenodd" clip-rule="evenodd" d="M25.6425 5.91668C30.1001 6.13576 34.2538 7.97395 37.4263 11.1486C40.8103 14.5347 42.6729 19.0358 42.6711 23.8225C42.667 33.7002 34.6257 41.7372 24.7474 41.7372C21.0326 41.7372 18.0807 40.5959 16.1746 39.5567L6.67285 42.0479L9.21573 32.7644C7.6472 30.0476 6.82185 26.9658 6.82314 23.8082C6.82711 13.9307 14.8677 5.89453 24.7471 5.89453L25.6425 5.91668ZM16.6148 36.3135L17.1588 36.6361C19.4461 37.9928 22.068 38.7106 24.7413 38.7117H24.7473C32.9585 38.7117 39.6415 32.0318 39.6448 23.8214C39.6463 19.8428 38.0982 16.1017 35.2855 13.2872C32.4728 10.4726 28.7324 8.92162 24.7532 8.92033C16.5358 8.92033 9.85268 15.5995 9.8494 23.8093C9.84828 26.6229 10.6359 29.363 12.1271 31.7336L12.4814 32.2971L10.9764 37.7918L16.6148 36.3135ZM33.7772 28.0826C33.6653 27.8957 33.3668 27.7838 32.9189 27.5597C32.471 27.3356 30.2692 26.2527 29.8587 26.1032C29.4481 25.954 29.1495 25.8794 28.851 26.3274C28.5525 26.7754 27.6942 27.7838 27.4329 28.0826C27.1717 28.3813 26.9104 28.4187 26.4627 28.1946C26.0148 27.9706 24.5717 27.4978 22.8611 25.9728C21.5297 24.7858 20.6309 23.32 20.3696 22.8719C20.1084 22.4238 20.3418 22.1815 20.566 21.9583C20.7675 21.7577 21.0139 21.4355 21.2378 21.1741C21.4618 20.9128 21.5363 20.7259 21.6857 20.4273C21.8349 20.1285 21.7603 19.8672 21.6483 19.6431C21.5363 19.4189 20.6407 17.2156 20.2675 16.3193C19.9039 15.4465 19.5347 15.5647 19.2598 15.5509C18.9989 15.538 18.7 15.5351 18.4015 15.5351C18.1029 15.5351 17.6177 15.6471 17.2072 16.0953C16.7967 16.5434 15.6397 17.6264 15.6397 19.8296C15.6397 22.033 17.2445 24.1614 17.4685 24.4602C17.6924 24.7591 20.6265 29.2802 25.1191 31.2194C26.1876 31.6806 27.0218 31.956 27.6722 32.1623C28.7451 32.503 29.7214 32.455 30.4931 32.3397C31.3536 32.2112 33.1428 31.2568 33.516 30.2113C33.8892 29.1655 33.8892 28.2692 33.7772 28.0826Z" fill="white"/>
<mask id="mask0_523_40" style="mask-type:alpha" maskUnits="userSpaceOnUse" x="9" y="8" width="31" height="31">
<path fill-rule="evenodd" clip-rule="evenodd" d="M16.6147 36.3135L17.1588 36.6362C19.4461 37.9929 22.068 38.7107 24.7412 38.7118H24.7473C32.9584 38.7118 39.6414 32.0319 39.6447 23.8215C39.6463 19.8429 38.0982 16.1018 35.2855 13.2873C32.4727 10.4727 28.7323 8.9217 24.7532 8.92041C16.5357 8.92041 9.85264 15.5996 9.84937 23.8094C9.84825 26.623 10.6358 29.3631 12.1271 31.7337L12.4813 32.2972L10.9763 37.7918L16.6147 36.3135ZM33.7772 28.0827C33.6652 27.8958 33.3667 27.7839 32.9189 27.5598C32.471 27.3357 30.2691 26.2528 29.8586 26.1033C29.4481 25.9541 29.1495 25.8795 28.851 26.3274C28.5525 26.7755 27.6942 27.7839 27.4328 28.0827C27.1717 28.3814 26.9104 28.4188 26.4626 28.1947C26.0148 27.9707 24.5717 27.4979 22.8611 25.9729C21.5297 24.7859 20.6308 23.3201 20.3696 22.872C20.1084 22.4239 20.3417 22.1815 20.5659 21.9584C20.7674 21.7578 21.0139 21.4355 21.2378 21.1741C21.4617 20.9128 21.5363 20.726 21.6856 20.4274C21.8349 20.1286 21.7602 19.8673 21.6483 19.6432C21.5363 19.419 20.6407 17.2157 20.2675 16.3194C19.9039 15.4466 19.5347 15.5648 19.2598 15.551C18.9989 15.538 18.7 15.5352 18.4015 15.5352C18.1029 15.5352 17.6177 15.6472 17.2072 16.0954C16.7966 16.5435 15.6397 17.6265 15.6397 19.8297C15.6397 22.0331 17.2445 24.1615 17.4684 24.4603C17.6924 24.7592 20.6264 29.2803 25.1191 31.2194C26.1876 31.6807 27.0218 31.956 27.6722 32.1624C28.7451 32.503 29.7214 32.455 30.4931 32.3397C31.3535 32.2112 33.1428 31.2568 33.516 30.2114C33.8892 29.1655 33.8892 28.2693 33.7772 28.0827Z" fill="black"/>
</mask>
<g mask="url(#mask0_523_40)">
<path d="M49.3599 -1H-1V49.36H49.3599V-1Z" fill="url(#paint0_linear_523_40)"/>
</g>
<defs>
<linearGradient id="paint0_linear_523_40" x1="24.18" y1="49.36" x2="24.18" y2="-1" gradientUnits="userSpaceOnUse">
<stop stop-color="#25CF43"/>
<stop offset="1" stop-color="#61FD7D"/>
</linearGradient>
</defs>
</svg>
